<svg width="58" height="60" viewBox="0 0 58 60" fill="none" xmlns="http://www.w3.org/2000/svg">
<path d="M19.7963 52.8951L6.8278 39.5491L1.33027 54.6359C-0.13574 59.8582 3.63265 59.3263 5.7001 58.4076L19.7963 52.8951Z" fill="white"/>
<path d="M22.7566 50.7191L8.94225 36.5028L35.3022 9.23059L49.2575 23.592L22.7566 50.7191Z" fill="white"/>
<path d="M51.7948 20.9808L37.8395 6.47436L41.9274 2.12241C43.2807 0.729786 44.7467 0.816826 45.4515 1.39708L56.1646 12.5671C57.2923 13.8727 57.0574 15.42 56.7285 15.7585L51.7948 20.9808Z" fill="white"/>
<path d="M19.7963 52.8951L6.8278 39.5491L1.33027 54.6359C-0.13574 59.8582 3.63265 59.3263 5.7001 58.4076L19.7963 52.8951Z" stroke="white"/>
<path d="M22.7566 50.7191L8.94225 36.5028L35.3022 9.23059L49.2575 23.592L22.7566 50.7191Z" stroke="white"/>
<path d="M51.7948 20.9808L37.8395 6.47436L41.9274 2.12241C43.2807 0.729786 44.7467 0.816826 45.4515 1.39708L56.1646 12.5671C57.2923 13.8727 57.0574 15.42 56.7285 15.7585L51.7948 20.9808Z" stroke="white"/>
</svg>
