<svg width="47" height="59" viewBox="0 0 47 59" fill="none" xmlns="http://www.w3.org/2000/svg">
<path d="M1 48.2987V58H46L45.806 44.4943C45.4181 40.4616 43.1228 36.9171 42.0237 35.649C37.5237 30.7793 32.2608 29.4985 30.1918 29.4668H17.0022C14.3642 29.6189 11.8944 30.6081 10.9892 31.0837C6.72198 32.8337 3.71552 37.0756 2.74569 39.1681C1.73178 41.3556 1.03233 45.9843 1 48.2987Z" fill="white"/>
<path d="M17.3901 2.3602C12.5022 4.56677 10.569 9.17647 10.2134 11.2055C9.04957 15.9991 11.3448 20.5581 12.6379 22.2383C16.1293 26.5754 20.4846 27.2464 22.3362 27.4694C27.8642 28.1352 32.6164 24.6161 34.2651 22.5237C37.6013 17.9584 37.2069 12.6956 36.5927 10.6348C34.8858 5.30863 31.0323 2.77234 29.319 2.16997C23.8103 -0.0365958 19.0711 1.37738 17.3901 2.3602Z" fill="white"/>
<path d="M1 48.2987V58H46L45.806 44.4943C45.4181 40.4616 43.1228 36.9171 42.0237 35.649C37.5237 30.7793 32.2608 29.4985 30.1918 29.4668H17.0022C14.3642 29.6189 11.8944 30.6081 10.9892 31.0837C6.72198 32.8337 3.71552 37.0756 2.74569 39.1681C1.73178 41.3556 1.03233 45.9843 1 48.2987Z" stroke="white"/>
<path d="M17.3901 2.3602C12.5022 4.56677 10.569 9.17647 10.2134 11.2055C9.04957 15.9991 11.3448 20.5581 12.6379 22.2383C16.1293 26.5754 20.4846 27.2464 22.3362 27.4694C27.8642 28.1352 32.6164 24.6161 34.2651 22.5237C37.6013 17.9584 37.2069 12.6956 36.5927 10.6348C34.8858 5.30863 31.0323 2.77234 29.319 2.16997C23.8103 -0.0365958 19.0711 1.37738 17.3901 2.3602Z" stroke="white"/>
</svg>
